<svg xmlns="http://www.w3.org/2000/svg" width="50" height="50" viewBox="0 0 50 50">
  <path id="_5282541_fb_social_media_facebook_facebook_logo_social_network_icon" data-name="5282541_fb_social media_facebook_facebook logo_social network_icon" d="M43.891,0A6.112,6.112,0,0,1,50,6.109V43.891A6.112,6.112,0,0,1,43.891,50h-10.4V31.161H40l1.238-8.068H33.494V17.856c0-2.207,1.081-4.359,4.549-4.359h3.52V6.628a42.929,42.929,0,0,0-6.248-.545c-6.376,0-10.543,3.864-10.543,10.86v6.15H17.684v8.068h7.087V50H6.109A6.112,6.112,0,0,1,0,43.891V6.109A6.112,6.112,0,0,1,6.109,0H43.891Z" fill-rule="evenodd"/>
</svg>
