<svg xmlns="http://www.w3.org/2000/svg" width="46" height="70" viewBox="0 0 46 70">
  <g id="Group_49" data-name="Group 49" transform="translate(-1073 -1145)">
    <path id="Subtraction_15" data-name="Subtraction 15" d="M3.747,35.226A22.5,22.5,0,0,1,0,22.767,22.884,22.884,0,0,1,23,0,22.884,22.884,0,0,1,46,22.767a22.493,22.493,0,0,1-3.743,12.454L23,70Z" transform="translate(1073 1145)"/>
    <path id="Path_10" data-name="Path 10" d="M33.389,8.536A62.573,62.573,0,0,1,18.629,10.17,62.573,62.573,0,0,1,3.868,8.536L3,11.8a65.105,65.105,0,0,0,10.419,1.634V34.678h3.473v-9.8h3.473v9.8h3.473V13.437A65.105,65.105,0,0,0,34.258,11.8Zm-14.761,0A3.385,3.385,0,0,0,22.1,5.268a3.48,3.48,0,0,0-6.946,0A3.385,3.385,0,0,0,18.629,8.536Z" transform="translate(1077.317 1151.748)" fill="#fff"/>
  </g>
</svg>
