<svg xmlns="http://www.w3.org/2000/svg" width="50" height="50" viewBox="0 0 50 50">
  <g id="instagram" transform="translate(-7 -7)">
    <path id="Path_6" data-name="Path 6" d="M44.5,9A10.51,10.51,0,0,1,55,19.5v25A10.51,10.51,0,0,1,44.5,55h-25A10.51,10.51,0,0,1,9,44.5v-25A10.51,10.51,0,0,1,19.5,9h25m0-2h-25A12.5,12.5,0,0,0,7,19.5v25A12.5,12.5,0,0,0,19.5,57h25A12.5,12.5,0,0,0,57,44.5v-25A12.5,12.5,0,0,0,44.5,7Z"/>
    <path id="Path_7" data-name="Path 7" d="M32,22A10,10,0,1,1,22,32,10,10,0,0,1,32,22m0-2A12,12,0,1,0,44,32,12,12,0,0,0,32,20Z"/>
    <path id="Path_8" data-name="Path 8" d="M46,15a2,2,0,1,1-2,2,2,2,0,0,1,2-2m0-2a4,4,0,1,0,4,4A4,4,0,0,0,46,13Z"/>
  </g>
</svg>
