<svg xmlns="http://www.w3.org/2000/svg" width="51.86" height="50" viewBox="0 0 51.86 50">
  <path id="Path_18" data-name="Path 18" d="M39.6,3A15.234,15.234,0,0,0,27.93,8.695,15.234,15.234,0,0,0,16.262,3C8.275,3,2,9.594,2,17.986c0,10.3,8.816,18.692,22.17,31.444L27.93,53l3.76-3.6C45.044,36.678,53.86,28.286,53.86,17.986,53.86,9.594,47.585,3,39.6,3ZM28.189,45.371l-.259.272-.259-.272C15.328,33.627,7.186,25.861,7.186,17.986c0-5.45,3.89-9.537,9.076-9.537a10.142,10.142,0,0,1,9.257,6.431h4.849A10.08,10.08,0,0,1,39.6,8.45c5.186,0,9.076,4.087,9.076,9.537C48.674,25.861,40.532,33.627,28.189,45.371Z" transform="translate(-2 -3)"/>
</svg>
