<svg xmlns="http://www.w3.org/2000/svg" width="50" height="50" viewBox="0 0 50 50">
  <path id="Path_22" data-name="Path 22" d="M26,16.909A9.091,9.091,0,1,0,35.091,26,9.088,9.088,0,0,0,26,16.909Zm20.318,6.818A20.442,20.442,0,0,0,28.273,5.682V1H23.727V5.682A20.442,20.442,0,0,0,5.682,23.727H1v4.545H5.682A20.442,20.442,0,0,0,23.727,46.318V51h4.545V46.318A20.442,20.442,0,0,0,46.318,28.273H51V23.727H46.318ZM26,41.909A15.909,15.909,0,1,1,41.909,26,15.9,15.9,0,0,1,26,41.909Z" transform="translate(-1 -1)"/>
</svg>
