<?xml version="1.0" encoding="utf-8"?>
<!-- Generator: Adobe Illustrator 16.0.0, SVG Export Plug-In . SVG Version: 6.00 Build 0)  -->
<!DOCTYPE svg PUBLIC "-//W3C//DTD SVG 1.1//EN" "http://www.w3.org/Graphics/SVG/1.1/DTD/svg11.dtd">
<svg version="1.1" id="圖層_1" xmlns="http://www.w3.org/2000/svg" xmlns:xlink="http://www.w3.org/1999/xlink" x="0px" y="0px"
	 width="44.875px" height="44.875px" viewBox="0 0 44.875 44.875" enable-background="new 0 0 44.875 44.875" xml:space="preserve">
<path fill="#F5AC15" d="M22.438,0C10.045,0,0,10.045,0,22.438s10.045,22.438,22.438,22.438c12.392,0,22.438-10.045,22.438-22.438
	S34.829,0,22.438,0z M38.86,22.149l-11.311,0.158c-0.028-1.103-0.407-2.11-1.025-2.933l9.081-6.735
	C37.595,15.307,38.798,18.587,38.86,22.149z M30.519,8.141l-5.573,9.853c-0.744-0.421-1.592-0.681-2.508-0.681
	c-0.365,0-0.72,0.041-1.063,0.114L20.55,6.117C21.17,6.046,21.798,6,22.438,6C25.375,6,28.129,6.785,30.519,8.141z M14.107,8.292
	l5.743,9.745c-0.925,0.545-1.67,1.358-2.104,2.35L7.389,15.848C8.783,12.679,11.15,10.041,14.107,8.292z M6.002,22.475l11.321,0.064
	c0.022,1.095,0.389,2.098,0.995,2.921l-9.109,6.692C7.208,29.437,6.01,26.097,6.002,22.475z M14.272,36.684l5.579-9.844
	c0.762,0.448,1.638,0.723,2.586,0.723c0.188,0,0.365-0.036,0.547-0.055l1.206,11.271c-0.576,0.061-1.16,0.096-1.752,0.096
	C19.464,38.875,16.681,38.07,14.272,36.684z M30.618,36.674L24.304,27.2c1.254-0.492,2.264-1.458,2.811-2.683l10.33,4.597
	C36.022,32.297,33.619,34.943,30.618,36.674z"/>
</svg>
